<?xml version="1.0" standalone="no"?>
<!DOCTYPE svg PUBLIC "-//W3C//DTD SVG 20010904//EN"
 "http://www.w3.org/TR/2001/REC-SVG-20010904/DTD/svg10.dtd">
<svg version="1.0" xmlns="http://www.w3.org/2000/svg"
 width="260.000000pt" height="260.000000pt" viewBox="0 0 260.000000 260.000000"
 preserveAspectRatio="xMidYMid meet">
<metadata>
Created by potrace 1.14, written by Peter Selinger 2001-2017
</metadata>
<g transform="translate(0.000000,260.000000) scale(0.100000,-0.100000)"
fill="#000000" stroke="none">
<path d="M1008 2425 c-1 -2 -26 -6 -54 -9 -54 -6 -83 -14 -85 -25 -1 -3 -3
-77 -4 -164 -2 -157 -2 -157 21 -163 24 -6 31 -28 25 -81 -2 -26 -9 -34 -37
-43 -47 -16 -91 -54 -117 -104 l-22 -41 -3 -731 c-3 -728 -3 -731 18 -757 32
-41 99 -54 330 -63 137 -6 309 -6 467 1 174 6 259 21 298 51 20 15 20 27 20
757 0 741 0 742 -22 782 -28 53 -69 90 -115 105 -38 11 -38 12 -38 66 0 47 3
54 19 54 11 0 22 4 25 9 11 17 8 313 -4 325 -23 23 -151 34 -432 34 -157 0
-288 -1 -290 -3z"/>
</g>
</svg>
